<?xml version="1.0" standalone="no"?>
<!DOCTYPE svg PUBLIC "-//W3C//DTD SVG 20010904//EN"
 "http://www.w3.org/TR/2001/REC-SVG-20010904/DTD/svg10.dtd">
<svg version="1.0" xmlns="http://www.w3.org/2000/svg"
 width="512.000000pt" height="512.000000pt" viewBox="0 0 512.000000 512.000000"
 preserveAspectRatio="xMidYMid meet">
<metadata>
Created by potrace 1.14, written by Peter Selinger 2001-2017
</metadata>
<g transform="translate(0.000000,512.000000) scale(0.100000,-0.100000)"
fill="#000000" stroke="none">
<path d="M2559 4291 c-3 -7 -27 -14 -62 -16 -32 -3 -66 -9 -77 -15 -11 -6 -25
-8 -30 -5 -6 3 -10 2 -10 -4 0 -5 -11 -8 -25 -6 -16 1 -25 -3 -25 -11 0 -8 -8
-14 -17 -14 -24 -1 -55 -25 -45 -35 4 -5 1 -5 -6 -1 -8 5 -20 -1 -32 -14 -10
-12 -22 -22 -27 -23 -4 -1 -7 -6 -5 -10 1 -5 -2 -6 -7 -2 -6 3 -20 -5 -32 -19
-12 -14 -27 -23 -32 -19 -6 3 -7 1 -3 -5 3 -6 0 -14 -8 -19 -24 -14 -86 -94
-80 -104 3 -5 -2 -6 -10 -3 -14 5 -21 -5 -13 -22 1 -3 -6 -10 -15 -15 -10 -6
-18 -16 -18 -23 0 -8 -7 -17 -16 -20 -8 -3 -12 -10 -9 -16 3 -5 -1 -10 -9 -10
-9 0 -15 -3 -14 -7 4 -14 -66 -112 -75 -106 -6 3 -7 1 -4 -4 4 -6 -4 -23 -18
-39 -13 -15 -21 -32 -18 -37 3 -6 1 -7 -6 -3 -7 5 -15 -4 -22 -24 -6 -17 -14
-29 -17 -26 -5 6 -22 -19 -41 -60 -5 -12 -17 -24 -26 -28 -9 -3 -14 -10 -10
-15 3 -5 -4 -16 -15 -24 -11 -7 -17 -17 -13 -20 3 -4 1 -7 -6 -7 -7 0 -10 -4
-7 -8 3 -5 -4 -16 -15 -25 -11 -10 -17 -23 -13 -29 4 -7 3 -8 -4 -4 -7 4 -12
2 -12 -4 0 -6 -5 -8 -12 -4 -7 4 -8 3 -4 -5 4 -6 1 -18 -6 -26 -31 -34 -36
-43 -31 -49 4 -3 1 -6 -6 -6 -6 0 -16 -11 -21 -25 -5 -14 -14 -25 -20 -25 -6
0 -9 -4 -6 -9 4 -5 2 -11 -2 -13 -5 -1 -25 -26 -44 -55 -20 -29 -38 -49 -42
-46 -3 4 -6 -3 -6 -15 0 -11 -9 -27 -20 -35 -11 -8 -17 -17 -13 -20 3 -4 1 -7
-5 -7 -7 0 -12 -5 -12 -10 0 -19 -43 -69 -53 -63 -6 4 -7 1 -2 -7 4 -7 2 -16
-6 -21 -8 -4 -14 -12 -15 -16 -2 -19 -17 -43 -24 -38 -4 2 -13 -8 -21 -23 -8
-15 -22 -36 -31 -46 -10 -11 -18 -26 -18 -35 0 -8 -3 -11 -7 -8 -8 9 -34 -43
-27 -54 3 -5 2 -8 -3 -7 -4 2 -18 -7 -31 -19 -12 -13 -19 -23 -15 -23 5 0 -1
-7 -11 -15 -11 -8 -16 -15 -12 -15 4 0 1 -7 -6 -15 -31 -34 -38 -45 -31 -45 4
0 0 -5 -9 -11 -10 -5 -18 -16 -18 -24 0 -8 -9 -20 -20 -28 -11 -8 -18 -16 -15
-18 2 -3 -9 -20 -26 -38 -16 -18 -28 -36 -25 -38 3 -3 -6 -15 -20 -26 -14 -10
-23 -26 -20 -33 3 -8 0 -13 -7 -11 -7 1 -11 -4 -9 -10 1 -7 -3 -13 -9 -13 -5
0 -7 -5 -3 -12 4 -7 3 -8 -5 -4 -6 4 -14 0 -18 -11 -4 -10 -12 -23 -17 -30
-30 -34 -36 -43 -36 -52 0 -6 -8 -15 -17 -20 -10 -6 -14 -11 -10 -11 5 0 2 -7
-5 -15 -32 -36 -43 -50 -43 -58 0 -4 -7 -12 -15 -17 -8 -5 -11 -10 -7 -10 8 0
-2 -14 -41 -56 -13 -13 -20 -29 -17 -34 3 -6 -1 -10 -9 -10 -9 0 -16 -7 -16
-15 0 -8 -10 -23 -22 -35 -12 -11 -18 -20 -13 -20 5 0 0 -7 -11 -16 -10 -8
-12 -13 -4 -9 8 4 6 -2 -6 -12 -11 -10 -36 -40 -55 -68 -19 -27 -37 -51 -41
-53 -5 -2 -8 -8 -8 -13 0 -5 -7 -17 -15 -26 -8 -10 -14 -20 -13 -23 5 -9 -26
-38 -35 -33 -4 2 -7 -5 -7 -16 0 -12 -4 -21 -10 -21 -5 0 -12 -11 -16 -25 -4
-14 -9 -24 -12 -21 -2 3 -18 -15 -34 -39 -17 -25 -32 -45 -35 -45 -2 0 -1 5 3
12 4 7 3 8 -4 4 -6 -4 -9 -12 -6 -19 2 -7 -5 -22 -16 -34 -11 -12 -20 -27 -20
-33 0 -5 -5 -10 -11 -10 -5 0 -8 -4 -5 -9 3 -5 -1 -11 -9 -15 -8 -3 -15 -12
-15 -20 0 -8 -10 -23 -22 -33 -28 -22 -30 -34 -12 -51 11 -10 14 -10 14 0 0 8
9 14 20 14 11 0 20 -5 20 -11 0 -5 5 -3 10 5 9 13 10 13 10 0 0 -13 1 -13 10
0 6 10 10 11 10 3 0 -7 5 -13 11 -13 5 0 7 5 3 11 -5 8 -1 8 14 0 15 -8 22 -8
25 2 4 9 6 9 6 -1 1 -10 6 -10 22 -1 16 8 20 8 14 0 -5 -8 1 -10 19 -5 16 4
32 1 41 -6 13 -11 14 -10 10 1 -4 10 1 15 15 15 11 0 20 -5 20 -11 0 -5 5 -3
10 5 9 13 10 13 10 0 0 -13 1 -13 10 0 6 10 10 11 10 3 0 -7 5 -13 11 -13 5 0
7 5 3 11 -5 8 -1 8 14 0 15 -8 22 -8 25 2 4 9 6 9 6 -1 1 -10 6 -10 22 -1 16
8 20 8 14 0 -5 -8 1 -10 19 -5 16 4 32 1 41 -6 13 -11 14 -10 10 1 -4 10 1 15
15 15 11 0 20 -5 20 -11 0 -5 5 -3 10 5 9 13 10 13 10 0 0 -13 1 -13 10 0 6
10 10 11 10 3 0 -7 5 -13 11 -13 5 0 7 5 3 11 -5 8 -1 8 14 0 15 -8 22 -8 25
2 4 9 6 9 6 -1 1 -10 6 -10 22 -1 16 8 20 8 14 0 -5 -8 1 -10 19 -5 16 4 32 1
41 -6 13 -11 14 -10 10 1 -4 10 1 15 15 15 11 0 20 -5 20 -11 0 -5 5 -3 10 5
9 13 10 13 10 0 0 -13 1 -13 10 0 6 10 10 11 10 3 0 -7 5 -13 11 -13 5 0 7 5
3 11 -5 8 -1 8 14 0 15 -8 22 -8 25 2 4 9 6 9 6 -1 1 -10 6 -10 22 -1 12 6 19
7 15 1 -7 -13 67 -10 76 3 5 7 8 7 8 0 0 -5 13 -10 30 -11 16 -1 27 3 24 7 -2
4 5 13 16 19 12 6 25 22 30 36 6 15 15 22 22 18 6 -4 8 -3 4 4 -3 6 2 15 11
21 14 8 15 11 3 11 -9 0 -5 6 10 15 14 8 21 14 16 15 -5 0 -3 6 3 13 6 8 8 17
4 21 -4 4 1 4 11 0 13 -5 17 -4 13 3 -4 6 0 18 8 26 8 9 15 20 15 25 0 6 7 13
16 16 8 3 12 10 9 16 -3 6 1 13 9 16 9 3 16 12 16 19 0 7 7 16 16 19 8 3 13
10 10 15 -3 5 1 12 10 15 8 3 12 10 9 16 -3 5 -1 10 4 10 6 0 11 5 11 10 0 6
11 21 25 34 13 13 22 26 18 29 -3 4 -2 7 4 7 6 0 16 14 23 30 7 17 16 30 21
30 5 0 9 6 9 14 0 8 10 22 22 30 12 9 18 16 13 16 -6 0 -2 5 8 11 9 6 15 14
12 20 -4 5 -2 9 3 9 5 0 15 11 22 25 7 13 17 22 21 19 5 -3 6 3 2 12 -4 12 -3
15 5 10 7 -4 12 -1 12 7 0 7 9 23 20 35 11 12 21 25 22 29 3 19 24 43 38 44
10 0 11 2 2 6 -8 3 -2 15 19 34 17 16 26 29 20 29 -6 0 -3 9 6 19 9 11 21 17
26 14 6 -3 7 -2 4 4 -4 5 3 19 13 31 11 12 20 26 20 32 0 5 5 10 11 10 6 0 8
7 5 16 -3 8 -2 12 4 9 6 -3 10 -1 10 5 0 6 6 18 13 25 6 8 21 26 32 41 11 14
26 32 33 40 7 8 10 14 6 14 -4 0 1 7 12 15 10 8 16 15 12 15 -5 0 1 9 12 20
12 12 18 26 14 33 -4 7 -4 9 1 5 8 -8 32 20 54 64 8 15 18 25 23 22 4 -3 8 4
8 16 0 11 6 23 14 26 8 3 16 15 19 26 4 13 10 17 18 12 8 -4 10 -3 5 4 -4 6 2
19 14 29 11 10 20 21 20 26 0 14 37 57 44 52 3 -3 4 -2 1 2 -3 3 0 12 6 20 6
7 8 13 5 13 -4 0 -1 6 6 14 7 8 16 12 20 9 4 -2 5 3 2 11 -4 11 0 16 11 16 9
0 13 4 10 10 -3 5 5 21 19 33 14 13 23 27 19 30 -3 4 -1 7 6 7 7 0 10 3 8 8
-7 10 19 32 27 24 4 -3 4 1 1 10 -4 9 0 18 9 21 9 4 16 13 16 22 0 8 8 15 18
15 14 0 15 2 2 10 -13 8 -12 10 3 10 10 0 15 5 12 10 -3 6 -1 10 5 10 6 0 8 5
5 10 -3 6 -1 10 4 10 6 0 11 5 11 11 0 7 10 20 22 30 11 11 17 19 13 19 -4 0
2 8 13 19 12 10 19 20 16 23 -3 3 1 8 8 10 7 3 21 -4 31 -14 9 -10 15 -18 12
-18 -3 0 4 -10 15 -22 29 -31 51 -74 42 -83 -4 -3 -2 -5 5 -3 6 2 11 -1 11 -6
0 -5 4 -12 9 -15 5 -3 20 -22 33 -41 14 -19 28 -39 32 -45 5 -5 22 -31 39 -57
17 -27 35 -48 41 -48 5 0 6 -5 3 -10 -3 -6 1 -13 9 -16 9 -3 14 -10 11 -14 -2
-4 4 -18 15 -30 11 -12 17 -27 13 -33 -3 -6 -1 -7 5 -3 11 6 38 -31 34 -46 -1
-4 7 -12 18 -18 11 -6 20 -15 20 -21 0 -6 7 -17 15 -26 8 -8 13 -19 10 -24 -4
-5 1 -9 10 -9 9 0 14 -4 11 -9 -3 -5 1 -12 10 -15 8 -3 13 -10 9 -15 -3 -6 3
-14 12 -20 10 -5 15 -13 11 -16 -4 -4 5 -18 19 -31 14 -13 22 -24 18 -24 -5 0
0 -7 11 -15 10 -8 15 -15 10 -15 -5 0 1 -9 14 -20 13 -11 19 -20 14 -20 -5 0
0 -7 11 -16 11 -8 20 -18 20 -22 0 -4 3 -6 6 -5 3 1 6 -4 6 -11 0 -12 35 -66
61 -94 7 -8 9 -18 6 -24 -4 -7 -2 -8 4 -4 7 4 12 2 12 -4 0 -11 9 -24 42 -60
9 -10 14 -21 11 -24 -3 -3 2 -8 11 -12 9 -3 14 -10 11 -14 -3 -5 5 -16 17 -24
12 -9 19 -18 15 -22 -7 -8 15 -33 25 -28 4 3 5 -5 3 -16 -2 -11 0 -18 4 -16 5
3 17 -10 27 -29 10 -19 22 -35 27 -35 4 0 6 -4 3 -9 -3 -5 1 -11 9 -15 8 -3
15 -11 15 -18 0 -8 9 -20 19 -28 11 -7 18 -17 16 -21 -3 -4 2 -12 10 -19 8 -7
12 -16 9 -21 -3 -5 3 -9 12 -9 10 0 15 -3 11 -6 -3 -4 -1 -12 6 -20 31 -34 37
-44 37 -59 0 -8 8 -15 18 -15 14 0 15 -2 2 -10 -13 -8 -12 -10 3 -10 9 0 17
-7 17 -15 0 -8 5 -15 10 -15 6 0 10 -9 10 -21 0 -11 3 -18 8 -16 8 6 26 -13
30 -33 2 -8 10 -19 18 -23 8 -5 12 -12 9 -18 -4 -5 -1 -9 6 -9 7 0 10 -2 7 -5
-3 -3 8 -20 24 -37 16 -17 26 -33 24 -36 -3 -2 0 -10 7 -18 29 -33 35 -42 30
-47 -3 -3 4 -12 16 -19 12 -7 21 -17 21 -23 0 -6 16 -28 36 -50 20 -22 32 -33
26 -25 -8 12 -6 15 14 15 13 0 24 -4 24 -10 0 -5 5 -3 10 5 9 13 10 13 10 0 0
-13 1 -13 10 0 6 10 10 11 10 3 0 -7 5 -13 11 -13 5 0 7 5 3 11 -5 8 -1 8 14
0 15 -8 22 -8 25 2 4 9 6 9 6 -1 1 -10 6 -10 22 -1 16 8 20 8 14 0 -5 -8 1
-10 19 -5 16 4 32 1 41 -6 13 -11 14 -10 10 1 -4 10 1 15 15 15 11 0 20 -5 20
-11 0 -5 5 -3 10 5 9 13 10 13 10 0 0 -13 1 -13 10 0 6 10 10 11 10 3 0 -7 5
-13 11 -13 5 0 7 5 3 11 -5 8 -1 8 14 0 15 -8 22 -8 25 2 4 9 6 9 6 0 1 -7 6
-13 12 -13 5 0 8 4 5 8 -3 5 1 9 9 9 8 0 12 -4 9 -9 -7 -10 -1 -10 30 2 14 5
28 5 30 1 3 -5 24 -5 45 -1 27 5 42 3 45 -4 3 -7 5 -6 5 2 1 9 6 10 20 2 14
-7 21 -6 24 3 4 9 6 9 6 0 1 -7 6 -13 12 -13 5 0 8 4 5 8 -3 5 1 9 9 9 8 0 12
-4 9 -9 -7 -10 -1 -10 31 2 15 6 24 6 20 1 -3 -5 -1 -12 5 -16 5 -3 10 0 10 7
0 8 9 14 20 14 11 0 20 -5 20 -11 0 -5 5 -3 10 5 9 13 10 13 10 0 0 -13 1 -13
10 0 6 10 10 11 10 3 0 -7 5 -13 11 -13 5 0 7 5 3 11 -5 8 -1 8 14 0 15 -8 22
-8 25 2 4 9 6 9 6 -1 1 -10 6 -10 22 -1 12 6 19 7 15 1 -7 -13 67 -10 76 3 5
6 8 5 8 -2 0 -7 7 -13 15 -13 8 0 15 6 15 13 0 9 2 9 9 -1 7 -11 9 -11 13 0
10 27 0 99 -16 117 -9 10 -16 23 -16 29 0 7 -4 12 -9 12 -5 0 -13 9 -16 20 -4
12 -22 36 -41 55 -19 19 -34 38 -34 43 0 4 -9 18 -21 30 -11 12 -17 27 -14 32
4 6 -7 24 -24 41 -17 17 -34 41 -37 53 -3 12 -18 35 -33 51 -15 17 -30 38 -34
48 -3 9 -11 17 -16 17 -5 0 -13 9 -16 20 -4 11 -10 18 -14 16 -8 -5 -51 47
-51 61 0 5 -11 17 -25 27 -13 10 -22 22 -19 27 3 5 -2 12 -10 15 -9 3 -14 10
-11 14 7 11 -35 61 -46 54 -5 -3 -9 -2 -8 3 4 22 -2 43 -11 38 -5 -3 -10 1
-10 9 0 9 -4 16 -10 16 -5 0 -10 9 -10 21 0 11 -4 18 -9 15 -5 -4 -15 7 -23
24 -7 16 -16 30 -20 30 -5 0 -8 7 -8 15 0 8 -4 15 -10 15 -5 0 -10 7 -10 15 0
9 -7 18 -16 22 -8 3 -13 12 -10 19 3 8 -1 14 -9 14 -14 0 -19 12 -16 33 0 4
-5 6 -11 5 -7 -2 -14 7 -16 20 -2 12 -8 20 -13 17 -5 -4 -9 1 -9 9 0 9 -3 16
-7 16 -8 0 -43 56 -42 67 1 3 -6 10 -15 15 -9 5 -16 16 -16 23 0 8 -4 15 -10
15 -5 0 -10 7 -10 16 0 8 -4 12 -10 9 -9 -5 -12 1 -9 21 0 3 -9 14 -20 23 -12
10 -21 23 -21 28 0 6 -9 18 -20 28 -11 10 -20 24 -20 32 0 7 -7 16 -15 19 -8
4 -12 10 -9 15 3 5 1 9 -4 9 -5 0 -15 14 -22 30 -7 17 -18 30 -26 30 -8 0 -11
6 -8 15 4 8 -1 17 -10 21 -9 3 -16 12 -16 20 0 8 -7 14 -16 14 -8 0 -13 4 -9
9 3 5 -2 16 -10 24 -8 9 -15 20 -15 26 0 6 -4 11 -10 11 -5 0 -10 7 -10 15 0
8 -4 15 -10 15 -5 0 -10 5 -10 11 0 6 -6 17 -12 24 -31 34 -36 43 -31 49 4 3
1 6 -5 6 -7 0 -12 6 -12 14 0 8 -7 17 -16 20 -8 3 -12 10 -9 16 3 5 2 10 -3
10 -5 0 -15 11 -22 25 -7 13 -18 22 -23 18 -6 -3 -7 -1 -3 5 3 6 2 13 -4 17
-6 4 -7 11 -4 17 4 6 2 8 -4 4 -6 -3 -13 3 -17 14 -4 11 -18 32 -31 45 -13 14
-24 27 -23 31 2 7 -20 41 -43 65 -12 13 -13 19 -5 23 7 2 2 5 -10 5 -15 1 -21
6 -17 15 3 7 -2 16 -11 20 -10 4 -15 12 -11 22 3 8 2 13 -2 10 -5 -3 -16 8
-26 25 -9 16 -22 29 -27 29 -6 0 -7 4 -4 10 3 5 -3 17 -14 27 -11 9 -18 20
-15 25 3 4 2 8 -3 8 -4 0 -14 14 -21 30 -8 17 -17 28 -21 25 -4 -2 -15 12 -24
31 -9 19 -24 37 -32 40 -8 4 -13 10 -10 14 3 4 -2 13 -10 20 -8 7 -15 17 -15
22 0 5 -7 16 -15 25 -8 8 -12 19 -9 25 4 6 2 8 -3 5 -10 -7 -28 20 -25 36 1 4
-5 7 -13 7 -8 0 -15 7 -15 14 0 8 -11 27 -25 42 -13 14 -22 31 -18 37 3 6 1 7
-5 3 -11 -6 -16 6 -13 27 0 4 -5 7 -12 7 -15 0 -48 36 -40 44 4 3 -1 6 -11 6
-9 0 -14 5 -11 10 3 6 0 10 -8 10 -7 0 -20 11 -27 25 -7 13 -17 22 -21 19 -4
-2 -12 4 -18 13 -6 10 -11 15 -11 11 0 -5 -9 0 -19 10 -42 37 -116 79 -106 59
4 -6 1 -5 -7 3 -13 15 -28 21 -58 24 -8 1 -24 7 -35 13 -11 6 -31 9 -45 8 -14
-1 -33 2 -42 6 -11 6 -18 5 -21 -4 -4 -9 -6 -9 -6 1 -1 10 -6 10 -21 2 -16 -9
-20 -8 -20 5 0 15 -2 15 -17 -1 -16 -15 -17 -15 -23 2 -5 12 -8 14 -11 5z"/>
<path d="M2510 2847 c0 -6 -3 -7 -7 -4 -3 4 -13 1 -21 -6 -13 -10 -15 -9 -8 3
4 8 0 6 -8 -4 -9 -11 -16 -16 -16 -12 0 5 -6 3 -13 -3 -8 -6 -18 -7 -22 -3 -5
4 -5 2 -2 -4 6 -11 -19 -29 -35 -26 -5 1 -7 -1 -6 -5 3 -15 -14 -43 -23 -37
-5 3 -9 2 -8 -3 4 -16 -13 -43 -24 -36 -5 3 -7 1 -4 -4 4 -6 0 -16 -9 -23 -8
-7 -13 -19 -10 -27 3 -7 -1 -13 -9 -13 -14 0 -19 -12 -16 -32 0 -5 -6 -8 -15
-8 -8 0 -12 -4 -9 -10 3 -5 1 -10 -4 -10 -6 0 -11 -7 -11 -15 0 -7 -7 -18 -16
-23 -9 -5 -17 -13 -17 -18 -1 -5 -6 -8 -10 -6 -5 1 -6 -1 -3 -6 3 -4 -4 -21
-15 -38 -10 -16 -19 -24 -19 -19 -1 6 -7 -5 -15 -22 -8 -18 -19 -33 -25 -33
-6 0 -8 -5 -5 -11 4 -5 -1 -18 -12 -27 -10 -9 -24 -29 -32 -44 -8 -16 -18 -28
-23 -28 -5 0 -6 -4 -3 -10 3 -5 1 -10 -5 -10 -6 0 -15 -11 -20 -25 -5 -14 -14
-25 -20 -25 -6 0 -8 -4 -5 -10 3 -5 -1 -10 -10 -10 -10 0 -13 -5 -9 -12 4 -6
0 -16 -9 -23 -9 -6 -17 -18 -19 -26 -2 -8 -11 -20 -20 -27 -10 -7 -18 -20 -18
-28 0 -8 -5 -14 -11 -14 -5 0 -8 -4 -5 -8 3 -5 -4 -14 -14 -22 -10 -8 -17 -17
-14 -22 3 -4 0 -8 -6 -8 -6 0 -16 -13 -21 -30 -6 -16 -14 -28 -19 -25 -8 5
-24 -33 -20 -50 1 -5 -1 -7 -5 -3 -10 9 -35 -17 -35 -36 0 -8 -5 -18 -10 -21
-6 -4 -7 -12 -3 -18 4 -7 -1 -6 -11 2 -9 8 -16 10 -14 5 4 -13 -34 -84 -45
-84 -4 0 -6 -4 -3 -9 3 -5 -1 -12 -10 -15 -8 -3 -12 -10 -9 -16 3 -5 1 -10 -4
-10 -6 0 -11 -9 -11 -21 0 -11 -4 -18 -9 -15 -4 3 -8 -35 -8 -84 0 -49 4 -87
8 -84 5 3 9 -6 9 -20 0 -14 4 -26 8 -26 10 0 37 -50 34 -62 -1 -5 1 -7 6 -7
20 3 32 -3 32 -17 0 -8 5 -12 10 -9 6 3 13 -1 16 -9 3 -9 10 -13 15 -10 5 2
19 -1 31 -8 13 -6 30 -13 38 -15 25 -6 608 -8 605 -3 -2 3 7 5 20 5 13 0 21
-3 18 -7 -6 -10 1 -10 31 2 17 6 27 6 32 -1 4 -8 9 -7 15 2 7 12 9 12 9 0 0
-10 3 -11 14 -2 10 8 16 9 21 1 3 -5 11 -10 16 -10 6 0 7 5 3 11 -4 8 0 8 15
0 16 -9 21 -9 21 0 0 7 8 5 20 -6 19 -17 20 -17 14 -2 -5 15 -3 16 19 8 16 -6
28 -6 35 1 6 6 12 6 16 -1 4 -6 12 -11 17 -11 6 0 7 5 3 11 -4 8 0 8 15 0 16
-9 21 -9 21 0 0 7 8 5 20 -6 19 -17 20 -17 14 -2 -5 15 -3 16 19 8 16 -6 28
-6 35 1 6 6 12 6 16 -1 4 -6 12 -11 17 -11 6 0 7 5 3 11 -4 8 0 8 15 0 16 -9
21 -9 21 0 0 7 8 5 20 -6 19 -17 20 -17 14 -2 -5 15 -3 16 19 8 16 -6 28 -6
35 1 6 6 12 6 16 -1 4 -6 12 -11 17 -11 6 0 7 5 3 11 -4 8 0 8 15 0 16 -9 21
-9 21 0 0 7 8 5 20 -6 19 -17 20 -17 14 -2 -5 15 -3 16 19 8 16 -6 28 -6 35 1
6 6 12 6 16 -1 4 -6 12 -11 17 -11 6 0 7 5 3 11 -4 8 0 8 15 0 14 -8 21 -8 21
-1 0 8 6 8 20 0 14 -8 20 -8 20 0 0 6 6 10 13 8 6 -1 22 3 35 10 12 7 27 10
32 7 6 -3 10 1 10 10 0 11 5 15 16 11 8 -3 13 -2 10 3 -3 5 1 11 9 15 8 3 15
13 15 21 0 9 5 13 10 10 6 -3 10 -1 10 5 0 6 5 8 12 4 6 -4 8 -3 5 3 -8 12 17
66 25 57 4 -3 6 1 5 8 -2 47 4 78 14 72 8 -5 8 -1 0 13 -7 14 -7 24 2 33 10
10 9 11 -2 5 -11 -6 -13 -4 -8 8 3 10 2 17 -3 17 -5 0 -7 7 -4 15 4 9 0 15 -7
15 -11 0 -11 3 1 10 10 6 11 10 3 10 -7 0 -13 7 -13 15 0 8 -5 15 -11 15 -5 0
-8 4 -5 9 3 5 -1 11 -9 15 -8 3 -15 12 -15 21 0 8 -5 15 -11 15 -5 0 -8 4 -5
9 3 5 -1 11 -9 15 -8 3 -15 12 -15 21 0 8 -4 15 -10 15 -5 0 -10 7 -10 15 0 8
-4 15 -10 15 -5 0 -10 7 -10 15 0 8 -4 15 -9 15 -5 0 -14 13 -21 30 -7 16 -16
27 -20 25 -5 -3 -14 10 -21 29 -7 19 -16 33 -21 30 -4 -3 -8 4 -8 16 0 12 -4
19 -8 16 -5 -3 -15 7 -23 22 -8 15 -20 33 -27 40 -7 8 -10 18 -7 23 4 5 -1 9
-10 9 -9 0 -13 5 -10 10 3 6 1 10 -4 10 -6 0 -11 7 -11 15 0 8 -4 15 -10 15
-5 0 -10 6 -10 13 0 7 -15 30 -34 50 -18 20 -31 39 -28 42 3 3 0 5 -7 5 -7 0
-10 4 -6 9 3 5 -5 17 -17 26 -13 8 -22 16 -20 18 8 5 -19 58 -33 63 -8 4 -15
12 -15 18 0 7 -9 22 -20 34 -12 12 -18 22 -14 22 4 0 -3 9 -15 19 -13 11 -20
25 -16 30 3 6 -1 11 -9 11 -9 0 -16 7 -16 15 0 8 -5 15 -11 15 -5 0 -8 4 -5 8
3 5 -4 15 -15 22 -10 8 -19 20 -19 27 0 7 -5 13 -11 13 -5 0 -8 4 -5 8 3 5 -6
20 -20 35 -14 15 -22 27 -18 27 4 0 -2 10 -14 23 -12 13 -20 27 -17 30 3 4 2
5 -2 2 -3 -2 -16 7 -29 20 -13 14 -28 25 -33 25 -6 0 -15 8 -20 18 -8 12 -10
13 -11 3 0 -11 -3 -10 -13 4 -11 14 -29 18 -90 20 -48 1 -77 -2 -77 -8z"/>
</g>
</svg>
